<svg version="1.1" id="Layer_1" xmlns="http://www.w3.org/2000/svg" xmlns:xlink="http://www.w3.org/1999/xlink" x="0px" y="0px"
	 width="100%" viewBox="0 0 800 800" enable-background="new 0 0 800 800" xml:space="preserve">
<path fill="#000000" opacity="1.000000" stroke="none" 
	d="
M381.000000,801.000000 
	C254.000000,801.000000 127.500000,801.000000 1.000000,801.000000 
	C1.000000,534.333313 1.000000,267.666656 1.000000,1.000000 
	C267.666656,1.000000 534.333313,1.000000 801.000000,1.000000 
	C801.000000,267.666656 801.000000,534.333313 801.000000,801.000000 
	C661.166687,801.000000 521.333313,801.000000 381.000000,801.000000 
M266.510956,586.000000 
	C315.842499,586.000000 365.174255,585.921021 414.505463,586.048828 
	C429.008118,586.086426 443.461304,586.025085 457.728973,582.999939 
	C473.037415,579.754028 487.764771,574.920532 501.337219,566.964783 
	C513.827698,559.643250 524.034546,549.729187 532.946472,538.474609 
	C540.272888,529.222229 545.286682,518.513000 546.301575,506.903564 
	C547.452332,493.741608 548.267883,480.146545 546.253174,467.202972 
	C542.943420,445.938721 529.544678,430.076538 512.762878,417.474335 
	C496.409515,405.193939 477.290375,398.986694 457.414124,395.000305 
	C452.651581,394.045105 447.887573,393.097015 441.703094,391.861786 
	C444.399628,390.867950 445.564178,390.337158 446.782898,390.005188 
	C459.172302,386.630524 471.328766,382.778381 482.521362,376.184784 
	C493.639343,369.635193 504.341492,362.804657 512.309937,352.275330 
	C527.929382,331.636078 531.757751,308.674988 526.366028,283.825623 
	C522.105652,264.190308 509.781006,250.232681 493.226349,240.201233 
	C475.965424,229.741806 456.573975,224.398010 436.542206,224.203506 
	C377.716553,223.632355 318.881805,223.998734 260.050598,224.008469 
	C258.776855,224.008682 257.503143,224.135132 256.257141,224.201233 
	C256.257141,230.633026 256.257141,236.720917 256.257141,241.444427 
	C266.392181,244.372314 275.994171,246.928513 285.445435,249.955276 
	C291.463928,251.882690 297.330414,254.784409 299.533234,261.244476 
	C301.279572,266.366089 302.799225,271.867371 302.850128,277.215027 
	C303.153259,309.044312 303.000000,340.877960 303.000000,372.710144 
	C303.000000,427.874786 303.154114,483.040192 302.896881,538.203613 
	C302.828430,552.881042 295.561279,559.965271 281.922089,562.921204 
	C272.783936,564.901672 263.479523,566.114929 254.290771,567.664551 
	C254.290771,573.647888 254.290771,579.720947 254.290771,586.000000 
	C258.225525,586.000000 261.871307,586.000000 266.510956,586.000000 
z"/>
<path fill="#FFFFFF" opacity="1.000000" stroke="none" 
	d="
M266.014038,586.000000 
	C261.871307,586.000000 258.225525,586.000000 254.290771,586.000000 
	C254.290771,579.720947 254.290771,573.647888 254.290771,567.664551 
	C263.479523,566.114929 272.783936,564.901672 281.922089,562.921204 
	C295.561279,559.965271 302.828430,552.881042 302.896881,538.203613 
	C303.154114,483.040192 303.000000,427.874786 303.000000,372.710144 
	C303.000000,340.877960 303.153259,309.044312 302.850128,277.215027 
	C302.799225,271.867371 301.279572,266.366089 299.533234,261.244476 
	C297.330414,254.784409 291.463928,251.882690 285.445435,249.955276 
	C275.994171,246.928513 266.392181,244.372314 256.257141,241.444427 
	C256.257141,236.720917 256.257141,230.633026 256.257141,224.201233 
	C257.503143,224.135132 258.776855,224.008682 260.050598,224.008469 
	C318.881805,223.998734 377.716553,223.632355 436.542206,224.203506 
	C456.573975,224.398010 475.965424,229.741806 493.226349,240.201233 
	C509.781006,250.232681 522.105652,264.190308 526.366028,283.825623 
	C531.757751,308.674988 527.929382,331.636078 512.309937,352.275330 
	C504.341492,362.804657 493.639343,369.635193 482.521362,376.184784 
	C471.328766,382.778381 459.172302,386.630524 446.782898,390.005188 
	C445.564178,390.337158 444.399628,390.867950 441.703094,391.861786 
	C447.887573,393.097015 452.651581,394.045105 457.414124,395.000305 
	C477.290375,398.986694 496.409515,405.193939 512.762878,417.474335 
	C529.544678,430.076538 542.943420,445.938721 546.253174,467.202972 
	C548.267883,480.146545 547.452332,493.741608 546.301575,506.903564 
	C545.286682,518.513000 540.272888,529.222229 532.946472,538.474609 
	C524.034546,549.729187 513.827698,559.643250 501.337219,566.964783 
	C487.764771,574.920532 473.037415,579.754028 457.728973,582.999939 
	C443.461304,586.025085 429.008118,586.086426 414.505463,586.048828 
	C365.174255,585.921021 315.842499,586.000000 266.014038,586.000000 
M485.000000,478.540833 
	C484.334015,473.381531 483.888885,468.182281 482.963623,463.069916 
	C479.058289,441.490875 467.293762,425.463257 448.082977,415.053619 
	C434.850067,407.883087 420.214600,405.717255 405.489075,405.139221 
	C389.810211,404.523743 374.088440,405.000702 358.505554,405.000702 
	C358.171143,406.846832 358.014130,407.309357 358.013977,407.771973 
	C358.001587,449.436066 357.860077,491.100952 358.089722,532.763794 
	C358.155029,544.605774 363.475555,554.100220 374.712494,558.775330 
	C380.995941,561.389587 387.902954,562.757080 394.660156,563.932434 
	C413.171417,567.152283 431.016479,564.364502 447.717255,555.942444 
	C464.997162,547.228333 475.198883,532.357056 479.785614,514.058960 
	C482.608032,502.799500 483.333191,491.014252 485.000000,478.540833 
M358.000000,297.500000 
	C358.000000,326.253510 358.000000,355.006989 358.000000,383.000000 
	C370.609009,383.000000 382.662231,382.948273 394.714752,383.016785 
	C403.891846,383.068970 412.728668,381.804077 421.667358,379.268707 
	C443.428986,373.096100 456.605621,358.475555 462.752838,337.729462 
	C467.581360,321.433838 467.867859,304.392944 463.898956,287.707550 
	C460.747284,274.457794 454.354248,262.733826 442.504364,255.317917 
	C431.387299,248.360580 418.857666,244.975708 405.701385,245.074966 
	C389.869568,245.194427 373.975586,243.881821 358.000000,246.356186 
	C358.000000,263.221497 358.000000,279.860748 358.000000,297.500000 
z"/>
<path fill="#000000" opacity="1.000000" stroke="none" 
	d="
M485.000000,479.002960 
	C483.333191,491.014252 482.608032,502.799500 479.785614,514.058960 
	C475.198883,532.357056 464.997162,547.228333 447.717255,555.942444 
	C431.016479,564.364502 413.171417,567.152283 394.660156,563.932434 
	C387.902954,562.757080 380.995941,561.389587 374.712494,558.775330 
	C363.475555,554.100220 358.155029,544.605774 358.089722,532.763794 
	C357.860077,491.100952 358.001587,449.436066 358.013977,407.771973 
	C358.014130,407.309357 358.171143,406.846832 358.505554,405.000702 
	C374.088440,405.000702 389.810211,404.523743 405.489075,405.139221 
	C420.214600,405.717255 434.850067,407.883087 448.082977,415.053619 
	C467.293762,425.463257 479.058289,441.490875 482.963623,463.069916 
	C483.888885,468.182281 484.334015,473.381531 485.000000,479.002960 
z"/>
<path fill="#000000" opacity="1.000000" stroke="none" 
	d="
M358.000000,297.000000 
	C358.000000,279.860748 358.000000,263.221497 358.000000,246.356186 
	C373.975586,243.881821 389.869568,245.194427 405.701385,245.074966 
	C418.857666,244.975708 431.387299,248.360580 442.504364,255.317917 
	C454.354248,262.733826 460.747284,274.457794 463.898956,287.707550 
	C467.867859,304.392944 467.581360,321.433838 462.752838,337.729462 
	C456.605621,358.475555 443.428986,373.096100 421.667358,379.268707 
	C412.728668,381.804077 403.891846,383.068970 394.714752,383.016785 
	C382.662231,382.948273 370.609009,383.000000 358.000000,383.000000 
	C358.000000,355.006989 358.000000,326.253510 358.000000,297.000000 
z"/>
</svg>